<?xml version="1.0" standalone="no"?>
<!DOCTYPE svg PUBLIC "-//W3C//DTD SVG 20010904//EN"
 "http://www.w3.org/TR/2001/REC-SVG-20010904/DTD/svg10.dtd">
<svg version="1.0" xmlns="http://www.w3.org/2000/svg"
 width="512.000000pt" height="512.000000pt" viewBox="0 0 512.000000 512.000000"
 preserveAspectRatio="xMidYMid meet">

<g transform="translate(0.000000,512.000000) scale(0.100000,-0.100000)"
fill="#000000" stroke="none">
<path d="M1808 5109 c-367 -6 -456 -11 -555 -28 -314 -53 -569 -186 -799 -415
-228 -229 -361 -484 -415 -795 -47 -276 -47 -2346 0 -2621 54 -312 187 -567
415 -796 215 -215 446 -341 739 -405 148 -32 437 -41 1357 -41 921 0 1227 9
1377 41 290 63 523 191 738 406 214 214 343 449 406 738 32 149 41 457 41
1367 0 910 -9 1218 -41 1367 -63 290 -191 523 -406 739 -227 228 -483 361
-794 415 -97 16 -195 21 -645 29 -584 11 -769 10 -1418 -1z m1917 -489 c268
-31 509 -162 677 -370 78 -96 157 -247 187 -360 42 -154 44 -226 44 -1330 0
-1104 -2 -1176 -44 -1330 -71 -264 -274 -507 -523 -629 -119 -58 -214 -86
-351 -102 -141 -17 -2169 -17 -2310 0 -137 16 -232 44 -351 102 -194 95 -358
258 -454 453 -58 119 -85 210 -101 349 -17 144 -17 2170 0 2314 16 139 43 230
101 348 136 276 391 474 695 541 62 13 154 19 410 25 441 9 1907 1 2020 -11z"/>
<path d="M3753 4160 c-71 -36 -106 -72 -141 -149 -21 -46 -24 -64 -20 -130 5
-84 20 -121 75 -182 58 -64 123 -93 213 -93 63 -1 84 4 132 27 177 87 221 312
90 458 -63 70 -109 92 -207 97 -74 3 -85 1 -142 -28z"/>
<path d="M2326 3854 c-252 -46 -487 -168 -677 -351 -204 -198 -336 -445 -384
-717 -20 -115 -20 -337 0 -452 48 -272 180 -519 384 -717 150 -145 302 -238
494 -302 141 -47 257 -65 417 -65 369 0 687 134 943 399 145 150 238 302 302
494 46 139 65 258 65 412 0 226 -39 393 -136 590 -123 249 -329 458 -581 586
-114 58 -244 101 -368 123 -112 20 -350 20 -459 0z m459 -489 c234 -68 417
-219 521 -430 66 -133 87 -224 87 -375 0 -151 -21 -242 -87 -375 -106 -214
-303 -373 -541 -436 -112 -30 -298 -30 -410 0 -293 77 -512 291 -601 586 -34
116 -39 298 -10 415 24 101 103 261 166 338 132 161 336 274 555 306 72 11
233 -4 320 -29z"/>
</g>
</svg>
