<?xml version="1.0" standalone="no"?>
<!DOCTYPE svg PUBLIC "-//W3C//DTD SVG 20010904//EN"
 "http://www.w3.org/TR/2001/REC-SVG-20010904/DTD/svg10.dtd">
<svg version="1.0" xmlns="http://www.w3.org/2000/svg"
 width="512.000000pt" height="512.000000pt" viewBox="0 0 512.000000 512.000000"
 preserveAspectRatio="xMidYMid meet">

<g transform="translate(0.000000,512.000000) scale(0.100000,-0.100000)"
fill="#000000" stroke="none">
<path d="M1878 3996 c-26 -7 -55 -19 -65 -26 -42 -32 -86 -77 -99 -101 -17
-33 -8 -42 56 -59 99 -27 164 -79 200 -164 35 -83 53 -295 46 -546 -8 -298
-34 -421 -98 -475 -86 -73 -202 16 -395 305 -143 215 -270 451 -404 755 -61
139 -108 196 -177 215 -31 8 -164 10 -450 8 -450 -3 -456 -4 -482 -67 -19 -47
-6 -90 87 -291 274 -592 530 -1049 797 -1425 467 -659 915 -950 1546 -1005
220 -19 398 -9 467 27 56 29 73 72 89 225 16 162 28 215 66 296 51 109 129
144 224 103 38 -17 82 -56 194 -174 327 -342 369 -381 461 -425 54 -26 110
-44 156 -51 91 -14 855 -15 902 -1 110 31 146 161 82 292 -65 131 -183 271
-467 553 -149 149 -284 290 -300 313 -38 59 -39 126 -3 202 14 30 140 208 279
395 285 383 378 520 443 650 94 189 108 284 49 336 -50 45 -98 49 -590 49
-429 0 -460 -2 -499 -20 -52 -23 -66 -45 -144 -230 -162 -379 -339 -684 -528
-905 -88 -104 -141 -145 -187 -145 -54 0 -106 54 -137 144 -7 20 -13 226 -16
566 -6 518 -7 536 -27 581 -23 49 -57 79 -113 97 -50 17 -899 15 -963 -2z"/>
</g>
</svg>
